<svg width="140" height="58" viewBox="0 0 140 58" fill="none" xmlns="http://www.w3.org/2000/svg">
<g clip-path="url(#clip0_8531_404690)">
<path fill-rule="evenodd" clip-rule="evenodd" d="M129.889 26.9256H124.423V5.35187H129.601V7.74895C130.272 6.3107 131.902 4.96834 133.916 4.87245C137.463 4.68069 139.861 6.79012 139.861 11.2966V26.9256H134.203V10.6255C134.203 8.70779 134.203 7.07777 132.957 6.79012C132.478 6.59835 131.71 6.79012 131.039 7.26954C130.272 8.0366 129.889 9.09132 129.889 10.6255C129.889 11.009 129.889 26.9256 129.889 26.9256Z" fill="#171321"/>
<path fill-rule="evenodd" clip-rule="evenodd" d="M36.5846 6.7594C35.3381 5.6088 33.7081 4.84174 31.7905 4.84174C29.8728 4.84174 28.4345 5.6088 26.9963 6.7594C24.6951 8.67707 23.2568 12.2248 23.2568 16.156C23.2568 20.1831 24.6951 23.539 26.9963 25.5525C28.4345 26.7031 29.8728 27.4702 31.7905 27.4702C33.7081 27.4702 35.3381 26.7031 36.5846 25.5525C38.9817 23.6349 40.3241 20.1831 40.3241 16.156C40.3241 12.2248 38.9817 8.67707 36.5846 6.7594ZM34.4752 16.156C34.4752 20.1831 34.4752 23.4431 33.804 25.0731C33.3246 25.8402 32.8452 26.3196 31.6946 26.3196C30.7357 26.3196 30.0646 25.8402 29.7769 25.0731C29.0098 23.4431 29.0098 20.279 29.0098 16.156C29.0098 12.3206 29.0098 8.86884 29.7769 7.23882C30.0646 6.47175 30.7357 5.99234 31.6946 5.99234C32.8452 5.99234 33.3246 6.47175 33.804 7.23882C34.667 8.86884 34.4752 12.2248 34.4752 16.156Z" fill="#171321"/>
<path fill-rule="evenodd" clip-rule="evenodd" d="M92.8683 35.1783V41.0272H91.8136C91.1424 38.5342 90.1835 36.4248 87.5947 36.3289C85.9647 36.1371 84.5264 37.0959 84.3347 38.6301C84.1429 40.0683 84.6223 41.4107 87.5947 42.9448C91.3341 45.0543 94.2106 46.0131 94.2106 50.3278C94.2106 55.0261 90.1835 57.2314 86.8276 57.2314C85.3894 57.2314 80.4034 57.2314 80.4034 57.2314V49.1772H81.554C82.3211 53.3961 83.6635 55.985 86.7317 56.0808C88.6494 56.0808 90.0877 54.9302 90.0877 52.8208C90.0877 50.7114 88.7453 49.5608 85.677 47.739C82.3211 45.6296 80.2117 44.3831 80.2117 41.4107C80.2117 37.5754 82.9923 35.0824 87.307 35.0824C88.7453 35.1783 92.8683 35.1783 92.8683 35.1783Z" fill="#171321"/>
<path fill-rule="evenodd" clip-rule="evenodd" d="M99.9826 26.9256V11.2966C99.9826 6.7901 97.5856 4.68067 94.0379 4.87243C91.6408 5.0642 90.2025 6.69422 89.5314 7.9407C88.7643 5.6395 86.9425 4.68067 84.3537 4.87243C82.2442 5.0642 80.6142 6.31068 80.0389 7.74893V5.35185H75.053V26.9256H80.5183C80.5183 26.9256 80.5183 11.1049 80.5183 10.6254C80.5183 8.99542 80.7101 8.03658 81.6689 7.26952C82.3401 6.7901 82.9154 6.59833 83.4907 6.7901C84.7372 7.07775 84.7372 8.70777 84.7372 10.6254V26.9256H90.2025V10.5296C90.2025 9.0913 90.4902 8.13247 91.3531 7.26952C92.0243 6.7901 92.5996 6.59833 93.1749 6.7901C94.4214 7.07775 94.6132 8.70777 94.6132 10.6254V26.9256H99.9826Z" fill="#171321"/>
<path fill-rule="evenodd" clip-rule="evenodd" d="M44.0723 0.807922H49.7294V26.9841H44.0723V0.807922Z" fill="#171321"/>
<path fill-rule="evenodd" clip-rule="evenodd" d="M69.6645 26.9841V0.807922H64.0074V6.94446C63.528 5.79386 62.3774 5.02679 60.7473 5.02679C56.8161 5.02679 53.5561 9.24566 53.3643 15.6698C53.1726 19.9846 54.6108 27.2717 60.2679 27.2717C62.5691 27.2717 63.8156 26.0252 64.295 24.8746V26.9841H69.6645ZM63.0485 7.13622C64.1991 8.76624 64.1991 12.6016 64.1991 15.6698C64.1991 18.9299 64.3909 23.0529 63.0485 24.8746C62.5691 25.5458 62.0897 25.8335 61.2268 25.8335C60.0762 25.8335 59.405 24.587 59.1173 22.4776C58.9256 20.5599 58.9256 18.1628 58.9256 15.574C58.9256 11.2592 59.2132 6.36916 61.3226 6.36916C62.2815 6.27327 62.5691 6.65681 63.0485 7.13622Z" fill="#171321"/>
<path fill-rule="evenodd" clip-rule="evenodd" d="M116.81 5.99233C118.248 6.7594 119.207 8.10177 119.207 10.9783V26.9908H113.934V24.5937C113.262 26.4155 111.537 27.4702 109.139 27.4702C107.222 27.4702 103.77 26.5114 103.77 21.5254C103.77 16.8271 106.838 15.8683 110.194 14.4301C113.262 13.0877 113.55 12.8959 113.55 11.6494C113.55 10.4988 113.55 9.54002 113.55 8.10177C113.55 6.66352 112.783 5.99233 111.153 5.99233C110.482 6.1841 109.331 6.47175 109.331 7.23882C109.139 8.19765 110.29 8.19765 110.482 9.6359C110.674 11.9371 108.852 12.7042 107.222 12.5124C106.071 12.5124 104.825 11.8412 104.633 10.1153C104.441 7.23882 107.701 4.74585 112.208 4.74585C114.413 4.84173 115.66 5.32115 116.81 5.99233ZM113.55 14.0465L111.824 15.1971C110.002 16.3477 109.715 17.786 109.523 19.416C109.331 20.6625 109.331 21.8131 109.523 23.7307C109.715 25.5525 110.77 25.8402 111.824 25.5525C112.975 25.0731 113.646 22.9637 113.646 20.7584C113.55 20.6625 113.55 14.8136 113.55 14.0465Z" fill="#171321"/>
<path fill-rule="evenodd" clip-rule="evenodd" d="M36.9422 36.1371C38.3805 37.096 39.1475 38.2466 39.1475 41.1231V57.2314H34.0657V54.8344C33.3945 56.4644 31.6686 57.615 29.2716 57.615C27.1621 57.615 23.9021 56.8479 23.9021 51.7661C23.9021 47.0678 26.9704 46.109 30.2304 44.6707C33.3945 43.2325 33.6822 43.0407 33.6822 41.986C33.6822 40.8354 33.6822 39.8766 33.6822 38.4383C33.6822 36.8083 32.9151 36.1371 31.2851 36.3289C30.6139 36.3289 29.4633 36.6165 29.4633 37.4795C29.2716 38.6301 30.4222 38.6301 30.6139 40.0683C30.8057 42.1778 28.9839 42.9448 27.3539 42.9448C26.2033 42.7531 24.9568 42.1778 24.765 40.356C24.6692 37.5754 27.9292 35.1783 32.4357 35.1783C34.5451 35.1783 35.7916 35.4659 36.9422 36.1371ZM33.6822 44.1913L31.8604 45.3419C30.1345 46.4925 29.8469 47.9308 29.6551 49.5608C29.4633 50.8073 29.4633 52.1496 29.6551 53.8755C29.6551 55.7932 30.8057 56.1767 31.7645 55.6973C33.011 55.2179 33.6822 53.3002 33.6822 50.9031C33.6822 50.8073 33.6822 45.0543 33.6822 44.1913Z" fill="#171321"/>
<path fill-rule="evenodd" clip-rule="evenodd" d="M75.9274 41.6236C75.9274 37.1171 73.5303 34.8159 69.9826 35.1994C68.1609 35.3912 66.7226 36.1582 65.9555 37.3088V30.9805H60.4902V45.8424C60.4902 51.3078 56.6549 56.4855 52.7236 56.2937C49.943 56.2937 49.3677 54.1843 48.9842 51.979C48.5048 48.7189 48.5048 44.9795 48.8883 40.9524C49.176 38.3635 49.8471 36.2541 51.7648 36.2541C53.2031 36.2541 53.3948 37.2129 52.7236 37.8841C52.0525 38.7471 51.0936 39.5141 51.573 41.3359C52.0525 43.2536 55.1207 43.6371 56.559 42.103C57.7096 40.8565 57.5178 38.7471 56.7507 37.4047C55.7919 35.7747 54.1619 35.1035 51.7648 35.1035C48.6965 35.1035 42.8477 37.8841 42.8477 46.5136C42.8477 55.9102 48.7924 57.4443 52.2442 57.4443C56.0796 57.4443 59.5314 54.0884 60.4902 51.3078V57.1567H65.9555V40.8565C65.9555 39.2265 66.2432 38.2677 67.1061 37.5006C67.7773 37.0212 68.5444 36.8294 69.0238 37.0212C70.2703 37.3088 70.2703 38.9388 70.2703 40.8565V57.1567H75.9274V41.6236Z" fill="#171321"/>
<path fill-rule="evenodd" clip-rule="evenodd" d="M19.4877 0.32373V9.52853H18.3371C17.3783 5.02201 15.2689 1.57021 12.3924 1.47433C10.4747 1.28256 9.32408 2.43316 8.36525 4.06318C7.40642 5.98085 6.927 10.0079 6.927 14.898C6.927 19.4045 7.11877 22.7604 7.59818 25.2534C7.88583 26.404 8.74878 28.1299 10.8582 28.1299C12.0088 28.1299 12.7759 27.8422 13.2553 27.1711C14.0224 26.2122 14.2141 24.2946 14.2141 22.9522C14.2141 20.8428 14.2141 20.1716 14.2141 18.6374C14.2141 17.1033 13.7347 15.9527 12.8718 15.4733C12.2006 15.1856 11.2418 15.1856 10.7623 14.9939V13.8433H19.7754V36.9512H18.6248C18.1454 35.1294 17.8577 33.8829 16.9948 32.4446C16.2277 31.0064 14.7894 29.3764 12.3924 29.3764C9.8035 29.1846 7.88583 30.8146 7.88583 33.2117C7.88583 36.4717 9.8035 37.2388 13.3512 39.1565C16.7071 41.0741 21.1177 42.7042 21.1177 48.3613C21.1177 53.8266 16.4194 57.2784 11.1459 57.2784C9.99527 57.2784 2.61225 57.2784 2.61225 57.2784V46.156H3.76285C5.2011 54.5937 8.74878 56.0319 11.1459 56.0319C14.2141 56.0319 15.6524 54.1143 15.6524 51.3337C15.4606 47.786 13.0635 46.5395 9.70762 44.7177C4.91345 41.9371 2.61225 40.6906 2.61225 36.1841C2.80402 32.3488 5.87228 29.8558 9.2282 28.897C2.13283 28.1299 0.0234004 21.6098 0.215167 14.7062C0.215167 7.80263 4.24227 0.32373 12.2006 0.32373C15.6524 0.32373 19.4877 0.32373 19.4877 0.32373Z" fill="#171321"/>
</g>
<defs>
<clipPath id="clip0_8531_404690">
<rect width="139.99" height="57.53" fill="white" transform="translate(0.00512695 0.200012)"/>
</clipPath>
</defs>
</svg>
