<svg width="140" height="26" viewBox="0 0 140 26" fill="none" xmlns="http://www.w3.org/2000/svg">
<g clip-path="url(#clip0_8531_404721)">
<path d="M138.161 20.7538V20.3662H138.405C138.534 20.3662 138.721 20.3805 138.721 20.5385C138.721 20.6964 138.62 20.7538 138.462 20.7538H138.161ZM138.161 21.0266H138.333L138.721 21.7014H139.137L138.706 20.9979C138.922 21.0123 139.094 20.8543 139.108 20.639V20.5815C139.108 20.2082 138.85 20.0934 138.419 20.0934H137.802V21.7014H138.161V21.0266ZM139.97 20.8974C139.97 19.9498 139.238 19.4042 138.419 19.4042C137.601 19.4042 136.869 19.9498 136.869 20.8974C136.869 21.845 137.601 22.3905 138.419 22.3905C139.238 22.3905 139.97 21.845 139.97 20.8974ZM139.51 20.8974C139.539 21.5004 139.065 22.0173 138.462 22.046H138.419C137.788 22.0747 137.256 21.5722 137.228 20.9405C137.199 20.3087 137.701 19.7775 138.333 19.7488C138.965 19.7201 139.496 20.2226 139.525 20.8543C139.51 20.8687 139.51 20.883 139.51 20.8974Z" fill="#171321"/>
<path d="M84.2059 4.99374V21.9353H88.9868V4.99374H84.2059ZM46.5898 4.96503V21.921H51.4139V8.75534L55.1755 8.7697C56.4102 8.7697 57.2716 9.0712 57.8603 9.70292C58.6212 10.5069 58.9227 11.8134 58.9227 14.1824V21.921H63.6032V12.56C63.6032 5.86953 59.3391 4.96503 55.1755 4.96503H46.5898ZM91.9157 4.99374V21.9353H99.6686C103.804 21.9353 105.153 21.2462 106.603 19.7099C107.637 18.6331 108.297 16.2498 108.297 13.6512C108.297 11.2679 107.737 9.14299 106.747 7.82212C104.995 5.45317 102.44 4.99374 98.6206 4.99374H91.9157ZM96.6536 8.6692H98.7067C101.693 8.6692 103.617 10.0044 103.617 13.4789C103.617 16.9533 101.693 18.3029 98.7067 18.3029H96.6536V8.6692ZM77.3144 4.99374L73.3231 18.4178L69.504 4.99374H64.3354L69.7912 21.9353H76.6827L82.1959 4.99374H77.3144ZM110.537 21.9353H115.318V4.99374H110.537V21.9353ZM123.947 4.99374L117.271 21.921H121.98L123.042 18.9203H130.939L131.944 21.9066H137.069L130.336 4.99374H123.947ZM127.048 8.08055L129.948 16.0058H124.062L127.048 8.08055Z" fill="#171321"/>
<path d="M14.5737 7.76049V5.43462C14.8034 5.42026 15.0331 5.4059 15.2628 5.4059C21.6375 5.2049 25.8154 10.8904 25.8154 10.8904C25.8154 10.8904 21.3072 17.1501 16.4688 17.1501C15.8228 17.1501 15.1911 17.0496 14.588 16.8486V9.78487C17.0719 10.0864 17.5744 11.1775 19.0532 13.6613L22.3697 10.876C22.3697 10.876 19.9433 7.70307 15.8658 7.70307C15.4351 7.68871 15.0044 7.71742 14.5737 7.76049ZM14.5737 0.0650024V3.53946L15.2628 3.49639C24.1213 3.19489 29.9072 10.7612 29.9072 10.7612C29.9072 10.7612 23.2742 18.8299 16.3683 18.8299C15.7653 18.8299 15.1767 18.7725 14.588 18.672V20.8256C15.0762 20.883 15.5787 20.9261 16.0668 20.9261C22.4989 20.9261 27.1507 17.6383 31.6588 13.7618C32.4054 14.3648 35.4635 15.8149 36.0952 16.4466C31.8168 20.036 21.8385 22.9218 16.1817 22.9218C15.6361 22.9218 15.1193 22.893 14.6024 22.8356V25.865H39.0385V0.0650024L14.5737 0.0650024ZM14.5737 16.8486V18.6864C8.62978 17.6239 6.9787 11.436 6.9787 11.436C6.9787 11.436 9.8358 8.27736 14.5737 7.76049V9.77051H14.5593C12.0755 9.46901 10.1229 11.7949 10.1229 11.7949C10.1229 11.7949 11.2284 15.7144 14.5737 16.8486ZM4.0211 11.1775C4.0211 11.1775 7.53863 5.98019 14.588 5.43462V3.53946C6.7777 4.17118 0.0297852 10.7755 0.0297852 10.7755C0.0297852 10.7755 3.84882 21.8306 14.5737 22.8356V20.8256C6.70591 19.8493 4.0211 11.1775 4.0211 11.1775Z" fill="#171321"/>
</g>
<defs>
<clipPath id="clip0_8531_404721">
<rect width="139.94" height="25.8" fill="white" transform="translate(0.0297852 0.0650024)"/>
</clipPath>
</defs>
</svg>
