<svg width="140" height="23" viewBox="0 0 140 23" fill="none" xmlns="http://www.w3.org/2000/svg">
<g clip-path="url(#clip0_8531_404706)">
<path d="M15.0881 6.11699C14.0276 5.73135 13.0153 5.44211 12.0512 5.20108C11.0871 5.00826 10.1712 4.91185 9.35166 4.91185C8.29113 4.91185 7.51984 5.10467 6.94137 5.44211C6.36291 5.77955 6.07367 6.2134 6.07367 6.74367C6.07367 7.12931 6.21829 7.46675 6.55573 7.75599C6.89317 8.04522 7.42343 8.28625 8.09831 8.57548L12.0512 10.4555C13.5938 11.1786 14.7507 11.9981 15.6184 12.9622C16.4379 13.9263 16.8235 15.0832 16.8235 16.433C16.7753 18.5059 15.9558 20.1931 14.2686 21.3982C12.6296 22.6033 10.364 23.1818 7.56805 23.23C6.50752 23.23 5.39879 23.1818 4.14545 23.0372C2.98851 22.9408 1.78337 22.6997 0.481813 22.4105V18.072C1.73516 18.5059 2.8921 18.7951 4.04903 18.9879C5.15776 19.1807 6.17008 19.2771 7.08599 19.2771C8.24293 19.2771 9.11063 19.0843 9.6891 18.6987C10.3158 18.3612 10.605 17.8792 10.605 17.2525C10.605 16.9151 10.5086 16.6258 10.2676 16.3848C10.0265 16.0956 9.64089 15.8545 9.15884 15.6135L4.77212 13.7817C3.13313 13.0586 1.92798 12.1909 1.15669 11.1304C0.385401 10.1181 -0.000244141 8.96113 -0.000244141 7.56316C0.0479615 5.63494 0.867458 4.04415 2.41004 2.93542C4.00083 1.77848 6.17008 1.24822 8.8696 1.20001C9.83372 1.20001 10.8942 1.29642 11.9548 1.44104C13.0635 1.58566 14.0758 1.77848 15.0399 1.9713C15.0881 1.9713 15.0881 6.11699 15.0881 6.11699ZM26.0308 22.8926H19.6195V1.58566H26.0308V22.8926ZM46.6629 5.53852H37.1181V10.2627H45.3613V13.8299H37.1181V18.7951H46.8557V22.9408H30.996V1.58566H46.6629V5.53852ZM76.5986 22.8926H70.6211V8.81651L64.4026 23.0372H60.7389L54.7614 8.81651V22.8444H50.4229V1.58566H58.2322L63.5831 14.6012L69.1749 1.58566H76.5986V22.8926ZM97.2306 5.53852H87.7341V10.2627H95.9773V13.8299H87.7341V18.7951H97.4235V22.9408H81.5638V1.58566H97.2306V5.53852ZM119.743 22.8926H112.946L105.329 9.25036V22.8926H100.991V1.58566H107.98L115.404 14.9868V1.58566H119.743V22.8926ZM138.157 6.11699C137.097 5.73135 136.084 5.44211 135.12 5.20108C134.156 5.00826 133.24 4.91185 132.421 4.91185C131.36 4.91185 130.541 5.10467 129.962 5.44211C129.384 5.77955 129.095 6.2134 129.095 6.74367C129.095 7.12931 129.239 7.46675 129.528 7.75599C129.818 8.04522 130.348 8.28625 131.167 8.57548L135.12 10.4555C136.663 11.1786 137.82 11.9981 138.688 13.0104C139.507 13.9745 139.893 15.1797 139.893 16.6258C139.844 18.6023 139.025 20.2413 137.338 21.3982C135.699 22.6033 133.385 23.1818 130.589 23.23C129.577 23.23 128.468 23.1818 127.215 23.0372C126.058 22.9408 124.852 22.6997 123.551 22.4105V18.072C124.804 18.5059 125.961 18.7951 127.118 18.9879C128.227 19.1807 129.239 19.2771 130.155 19.2771C131.312 19.2771 132.132 19.0843 132.758 18.7469C133.337 18.4094 133.626 17.9756 133.626 17.4453C133.626 17.0597 133.53 16.674 133.288 16.3848C133.047 16.0956 132.662 15.8063 132.18 15.6135L127.841 13.7817C126.202 13.0586 125.045 12.2391 124.226 11.2268C123.503 10.2627 123.117 9.05754 123.117 7.56316C123.165 5.63494 123.937 4.04415 125.479 2.93542C127.07 1.77848 129.239 1.24822 131.939 1.20001C132.855 1.20001 133.867 1.29642 134.927 1.44104C135.988 1.58566 137.049 1.77848 138.157 1.9713V6.11699Z" fill="#171321"/>
</g>
<defs>
<clipPath id="clip0_8531_404706">
<rect width="139.893" height="22.03" fill="white" transform="translate(0.0534668 0.950012)"/>
</clipPath>
</defs>
</svg>
