<svg width="71" height="56" viewBox="0 0 71 56" fill="none" xmlns="http://www.w3.org/2000/svg">
<path d="M35.6378 33.4994C42.6774 40.8203 53.1081 43.4093 62.9077 44.1663C63.4113 44.2053 63.924 44.2762 64.4205 44.3347C63.6066 44.9965 56.6949 49.8195 57.4436 50.9659C57.8812 51.6359 58.7642 50.9962 59.1221 50.746C61.7096 48.9356 64.008 47.2188 66.4501 45.2026C68.2885 43.685 67.3062 41.8574 66.2374 40.0687C64.6056 37.3377 64.2749 37.161 62.4814 34.3916C62.1857 33.9352 61.9193 33.4455 61.5863 33.0359C61.1943 32.5543 60.4929 32.1015 59.9371 32.53C59.3072 33.0157 59.5175 33.7146 59.9132 34.2628C59.9961 34.3771 60.075 34.4945 60.151 34.6137C60.9854 35.9236 65.1801 41.7766 64.7672 42.0966C64.6282 42.2045 64.4418 42.2208 64.2663 42.2316C59.2023 42.5448 54.0744 41.5001 49.2621 39.9841C46.0239 38.9642 42.9554 37.4091 40.2114 35.4088C38.0063 33.8014 36.0079 31.8789 34.4246 29.6503C32.7265 27.2606 31.9218 24.7582 31.1165 21.9771C30.6531 20.376 29.3978 22.0112 29.4279 22.9536C29.4608 23.9893 30.0454 24.9739 30.4643 25.8925C31.7908 28.7983 33.5498 31.3279 35.6378 33.4994Z" fill="#467C30"/>
<path d="M5.00391 5.36967C4.96414 5.01669 4.80007 4.74325 4.51172 4.54936C4.22337 4.35298 3.86044 4.25479 3.42294 4.25479C3.10973 4.25479 2.83878 4.30451 2.61009 4.40394C2.38139 4.50088 2.20366 4.63512 2.07688 4.80664C1.95259 4.97567 1.89045 5.16832 1.89045 5.38458C1.89045 5.56605 1.93271 5.72265 2.01722 5.8544C2.10423 5.98615 2.21733 6.09677 2.35654 6.18625C2.49823 6.27326 2.64986 6.34659 2.81144 6.40625C2.97301 6.46342 3.12838 6.51065 3.27752 6.54794L4.02326 6.74183C4.26687 6.80149 4.51669 6.88228 4.77273 6.98419C5.02877 7.08611 5.26616 7.22035 5.48491 7.38689C5.70366 7.55344 5.88015 7.75976 6.01439 8.00586C6.1511 8.25195 6.21946 8.54652 6.21946 8.88956C6.21946 9.32209 6.1076 9.70614 5.88388 10.0417C5.66265 10.3773 5.34074 10.642 4.91815 10.8359C4.49805 11.0298 3.9897 11.1268 3.39311 11.1268C2.82138 11.1268 2.32671 11.036 1.90909 10.8546C1.49148 10.6731 1.1646 10.4158 0.928445 10.0827C0.692294 9.74716 0.56179 9.34943 0.536932 8.88956H1.69283C1.7152 9.16548 1.80469 9.39542 1.96129 9.57937C2.12038 9.76083 2.32298 9.89631 2.56907 9.98579C2.81765 10.0728 3.08985 10.1163 3.38566 10.1163C3.7113 10.1163 4.00089 10.0653 4.25444 9.96342C4.51048 9.85902 4.71183 9.71484 4.85849 9.53089C5.00515 9.34446 5.07848 9.12695 5.07848 8.87837C5.07848 8.65216 5.01385 8.46697 4.88459 8.3228C4.75782 8.17862 4.58505 8.0593 4.3663 7.96484C4.15004 7.87038 3.90519 7.78711 3.63175 7.71502L2.72941 7.46893C2.1179 7.30238 1.63317 7.05753 1.27521 6.73437C0.919745 6.41122 0.74201 5.98366 0.74201 5.4517C0.74201 5.01171 0.861329 4.62766 1.09997 4.29953C1.3386 3.97141 1.66176 3.71661 2.06943 3.53515C2.4771 3.3512 2.93697 3.25923 3.44904 3.25923C3.96609 3.25923 4.42223 3.34996 4.81747 3.53142C5.2152 3.71289 5.52841 3.96271 5.75711 4.28089C5.9858 4.59659 6.10512 4.95951 6.11506 5.36967H5.00391ZM10.1803 5.27272V6.16761H7.0519V5.27272H10.1803ZM7.89085 3.90056H9.00573V9.31836C9.00573 9.53462 9.03805 9.69744 9.10268 9.80682C9.16731 9.91371 9.25058 9.98704 9.3525 10.0268C9.4569 10.0641 9.57001 10.0827 9.69181 10.0827C9.7813 10.0827 9.8596 10.0765 9.92672 10.0641C9.99384 10.0517 10.046 10.0417 10.0833 10.0343L10.2847 10.9553C10.22 10.9801 10.1281 11.005 10.0088 11.0298C9.88943 11.0572 9.74029 11.0721 9.56131 11.0746C9.26798 11.0795 8.99455 11.0273 8.74099 10.918C8.48744 10.8086 8.28237 10.6396 8.12576 10.4109C7.96915 10.1822 7.89085 9.89506 7.89085 9.54954V3.90056ZM13.0803 11.1268C12.7173 11.1268 12.3892 11.0597 12.0959 10.9254C11.8026 10.7887 11.5701 10.5911 11.3986 10.3326C11.2296 10.074 11.1451 9.7571 11.1451 9.38175C11.1451 9.05859 11.2072 8.79261 11.3315 8.58381C11.4558 8.375 11.6236 8.20969 11.8349 8.08789C12.0462 7.96608 12.2823 7.87411 12.5433 7.81197C12.8043 7.74982 13.0703 7.70259 13.3413 7.67027C13.6843 7.6305 13.9627 7.59819 14.1765 7.57333C14.3903 7.54598 14.5456 7.50248 14.6426 7.44282C14.7395 7.38317 14.788 7.28622 14.788 7.15199V7.12589C14.788 6.80025 14.696 6.54794 14.5121 6.36896C14.3306 6.18998 14.0597 6.10049 13.6992 6.10049C13.3239 6.10049 13.0281 6.18377 12.8118 6.35032C12.598 6.51438 12.4501 6.69709 12.3681 6.89843L11.3203 6.6598C11.4446 6.31179 11.6261 6.03089 11.8647 5.81711C12.1058 5.60085 12.383 5.44424 12.6962 5.3473C13.0094 5.24787 13.3388 5.19815 13.6843 5.19815C13.913 5.19815 14.1554 5.22549 14.4114 5.28018C14.6699 5.33238 14.9111 5.42933 15.1348 5.57102C15.361 5.71271 15.5462 5.9153 15.6904 6.1788C15.8345 6.43981 15.9066 6.77912 15.9066 7.19673V11H14.8178V10.217H14.7731C14.701 10.3612 14.5929 10.5028 14.4487 10.642C14.3045 10.7812 14.1193 10.8968 13.8931 10.9888C13.6669 11.0808 13.396 11.1268 13.0803 11.1268ZM13.3226 10.2319C13.6309 10.2319 13.8944 10.171 14.1131 10.0492C14.3343 9.92738 14.5021 9.76829 14.6165 9.57191C14.7333 9.37305 14.7917 9.16051 14.7917 8.9343V8.19602C14.752 8.23579 14.6749 8.27308 14.5606 8.30788C14.4487 8.3402 14.3207 8.36878 14.1765 8.39364C14.0323 8.41601 13.8919 8.43714 13.7552 8.45703C13.6184 8.47443 13.5041 8.48934 13.4121 8.50177C13.1959 8.52912 12.9982 8.5751 12.8193 8.63974C12.6428 8.70437 12.5011 8.79758 12.3942 8.91939C12.2898 9.03871 12.2376 9.1978 12.2376 9.39666C12.2376 9.67258 12.3395 9.88139 12.5433 10.0231C12.7472 10.1623 13.0069 10.2319 13.3226 10.2319ZM17.3916 11V5.27272H18.4692V6.18253H18.5288C18.6332 5.87429 18.8172 5.63192 19.0807 5.45543C19.3466 5.27645 19.6474 5.18696 19.983 5.18696C20.0526 5.18696 20.1346 5.18945 20.2291 5.19442C20.3261 5.19939 20.4019 5.20561 20.4566 5.21306V6.27947C20.4118 6.26704 20.3323 6.25337 20.2179 6.23846C20.1036 6.22105 19.9892 6.21235 19.8749 6.21235C19.6114 6.21235 19.3765 6.26829 19.1702 6.38015C18.9663 6.48952 18.8047 6.6424 18.6854 6.83878C18.5661 7.03267 18.5064 7.2539 18.5064 7.50248V11H17.3916ZM24.4332 5.27272V6.16761H21.3048V5.27272H24.4332ZM22.1438 3.90056H23.2587V9.31836C23.2587 9.53462 23.291 9.69744 23.3556 9.80682C23.4202 9.91371 23.5035 9.98704 23.6054 10.0268C23.7098 10.0641 23.8229 10.0827 23.9448 10.0827C24.0342 10.0827 24.1125 10.0765 24.1797 10.0641C24.2468 10.0517 24.299 10.0417 24.3363 10.0343L24.5376 10.9553C24.473 10.9801 24.381 11.005 24.2617 11.0298C24.1424 11.0572 23.9932 11.0721 23.8142 11.0746C23.5209 11.0795 23.2475 11.0273 22.9939 10.918C22.7404 10.8086 22.5353 10.6396 22.3787 10.4109C22.2221 10.1822 22.1438 9.89506 22.1438 9.54954V3.90056ZM29.5602 7.59943V11H28.4453V3.36363H29.5453V6.2049H29.6161C29.7503 5.89666 29.9554 5.65181 30.2313 5.47034C30.5073 5.28888 30.8677 5.19815 31.3127 5.19815C31.7054 5.19815 32.0484 5.27894 32.3418 5.44051C32.6376 5.60209 32.8663 5.84321 33.0279 6.16388C33.1919 6.48206 33.2739 6.87979 33.2739 7.35706V11H32.1591V7.4913C32.1591 7.0712 32.0509 6.74556 31.8347 6.51438C31.6184 6.28071 31.3176 6.16388 30.9323 6.16388C30.6688 6.16388 30.4327 6.21981 30.2239 6.33167C30.0176 6.44353 29.8547 6.6076 29.7354 6.82386C29.6186 7.03764 29.5602 7.29616 29.5602 7.59943ZM37.2301 11.1156C36.6658 11.1156 36.1798 10.995 35.7722 10.7539C35.367 10.5103 35.0538 10.1685 34.8325 9.72851C34.6138 9.28604 34.5044 8.76775 34.5044 8.17365C34.5044 7.587 34.6138 7.06995 34.8325 6.62251C35.0538 6.17507 35.362 5.82581 35.7573 5.57475C36.155 5.32368 36.6198 5.19815 37.1518 5.19815C37.4749 5.19815 37.7882 5.25159 38.0914 5.35848C38.3947 5.46537 38.6669 5.63316 38.908 5.86186C39.1491 6.09055 39.3393 6.3876 39.4785 6.75302C39.6177 7.11594 39.6873 7.55717 39.6873 8.0767V8.47194H35.1346V7.63672H38.5948C38.5948 7.34339 38.5351 7.08363 38.4158 6.85742C38.2965 6.62873 38.1287 6.44851 37.9124 6.31676C37.6987 6.18501 37.4476 6.11914 37.1592 6.11914C36.846 6.11914 36.5726 6.1962 36.3389 6.35032C36.1078 6.50195 35.9288 6.70081 35.802 6.94691C35.6777 7.19052 35.6156 7.45525 35.6156 7.74112V8.39364C35.6156 8.77645 35.6827 9.10209 35.8169 9.37056C35.9536 9.63903 36.1438 9.8441 36.3874 9.98579C36.631 10.125 36.9156 10.1946 37.2413 10.1946C37.4526 10.1946 37.6452 10.1648 37.8192 10.1051C37.9932 10.043 38.1436 9.95099 38.2704 9.82919C38.3972 9.70739 38.4941 9.55699 38.5612 9.37802L39.6165 9.56818C39.5319 9.87891 39.3803 10.1511 39.1616 10.3848C38.9453 10.6159 38.6731 10.7962 38.345 10.9254C38.0193 11.0522 37.6477 11.1156 37.2301 11.1156ZM40.9243 11V5.27272H42.0019V6.18253H42.0616C42.166 5.87429 42.3499 5.63192 42.6134 5.45543C42.8794 5.27645 43.1802 5.18696 43.5157 5.18696C43.5853 5.18696 43.6674 5.18945 43.7618 5.19442C43.8588 5.19939 43.9346 5.20561 43.9893 5.21306V6.27947C43.9445 6.26704 43.865 6.25337 43.7507 6.23846C43.6363 6.22105 43.522 6.21235 43.4076 6.21235C43.1441 6.21235 42.9092 6.26829 42.7029 6.38015C42.4991 6.48952 42.3375 6.6424 42.2182 6.83878C42.0988 7.03267 42.0392 7.2539 42.0392 7.50248V11H40.9243ZM47.2174 11.1156C46.6531 11.1156 46.1672 10.995 45.7595 10.7539C45.3543 10.5103 45.0411 10.1685 44.8199 9.72851C44.6011 9.28604 44.4917 8.76775 44.4917 8.17365C44.4917 7.587 44.6011 7.06995 44.8199 6.62251C45.0411 6.17507 45.3493 5.82581 45.7446 5.57475C46.1423 5.32368 46.6071 5.19815 47.1391 5.19815C47.4623 5.19815 47.7755 5.25159 48.0787 5.35848C48.382 5.46537 48.6542 5.63316 48.8953 5.86186C49.1364 6.09055 49.3266 6.3876 49.4658 6.75302C49.605 7.11594 49.6746 7.55717 49.6746 8.0767V8.47194H45.1219V7.63672H48.5821C48.5821 7.34339 48.5224 7.08363 48.4031 6.85742C48.2838 6.62873 48.116 6.44851 47.8998 6.31676C47.686 6.18501 47.4349 6.11914 47.1466 6.11914C46.8333 6.11914 46.5599 6.1962 46.3262 6.35032C46.0951 6.50195 45.9161 6.70081 45.7893 6.94691C45.665 7.19052 45.6029 7.45525 45.6029 7.74112V8.39364C45.6029 8.77645 45.67 9.10209 45.8042 9.37056C45.9409 9.63903 46.1311 9.8441 46.3747 9.98579C46.6183 10.125 46.9029 10.1946 47.2286 10.1946C47.4399 10.1946 47.6325 10.1648 47.8065 10.1051C47.9805 10.043 48.1309 9.95099 48.2577 9.82919C48.3845 9.70739 48.4814 9.55699 48.5485 9.37802L49.6038 9.56818C49.5193 9.87891 49.3676 10.1511 49.1489 10.3848C48.9326 10.6159 48.6604 10.7962 48.3323 10.9254C48.0066 11.0522 47.635 11.1156 47.2174 11.1156ZM52.3173 3.36363L52.2204 8.8038H51.1875L51.0906 3.36363H52.3173ZM51.7058 11.0708C51.4995 11.0708 51.323 10.9988 51.1763 10.8546C51.0297 10.7079 50.9576 10.5314 50.9601 10.3251C50.9576 10.1213 51.0297 9.94726 51.1763 9.80309C51.323 9.65643 51.4995 9.5831 51.7058 9.5831C51.9072 9.5831 52.0812 9.65643 52.2278 9.80309C52.3745 9.94726 52.4491 10.1213 52.4516 10.3251C52.4491 10.4618 52.413 10.5874 52.3434 10.7017C52.2763 10.8136 52.1868 10.9031 52.075 10.9702C51.9631 11.0373 51.8401 11.0708 51.7058 11.0708Z" fill="#467C30"/>
</svg>
