<svg width="184" height="32" viewBox="0 0 184 32" fill="none" xmlns="http://www.w3.org/2000/svg">
<g clip-path="url(#clip0_8608_408506)">
<path d="M31.4598 13.1869L31.415 13.0723L27.0647 1.72128C26.9763 1.49866 26.8198 1.30965 26.6177 1.18123C26.414 1.05268 26.1755 0.990511 25.935 1.00331C25.6945 1.01611 25.4639 1.10324 25.275 1.25268C25.0879 1.40272 24.953 1.608 24.8895 1.83926L21.9483 10.8406H10.0489L7.10781 1.83926C7.0443 1.608 6.90938 1.40272 6.7223 1.25268C6.53423 1.10224 6.30377 1.01445 6.06328 1.00163C5.82278 0.988819 5.5843 1.05162 5.38131 1.18123C5.17828 1.30913 5.02117 1.49825 4.93265 1.72128L0.577361 13.0872L0.532495 13.2002C-0.0927064 14.8372 -0.169557 16.6329 0.313499 18.3173C0.796555 20.0017 1.81341 21.4838 3.21114 22.5406L3.22776 22.5522L3.26598 22.5821L9.90111 27.5489L13.1812 30.0332L15.1753 31.5436C15.4095 31.7206 15.6951 31.8164 15.9887 31.8164C16.2822 31.8164 16.5678 31.7206 16.8021 31.5436L18.7961 30.0332L22.0779 27.5489L28.7513 22.5522L28.7695 22.5389C30.172 21.4831 31.1929 19.9998 31.6782 18.3127C32.1636 16.6257 32.0869 14.8266 31.4598 13.1869Z" fill="#ED3E23"/>
<path d="M31.462 12.7787L31.4172 12.6641C29.2955 13.1013 27.2962 14.0005 25.5614 15.2978L16.0083 22.5378C19.2652 25.0005 22.1001 27.1407 22.1001 27.1407L28.7734 22.144L28.7917 22.1307C30.1907 21.0723 31.2076 19.5877 31.6893 17.9009C32.171 16.214 32.0912 14.4163 31.462 12.7787Z" fill="#42C3D8"/>
<path d="M9.9082 27.1407L13.1834 29.625L15.1774 31.1354C15.4117 31.3124 15.6972 31.4082 15.9908 31.4082C16.2844 31.4082 16.57 31.3124 16.8042 31.1354L18.7982 29.625L22.0801 27.1407C22.0801 27.1407 19.2452 25.0005 15.9883 22.5378L9.9082 27.1407Z" fill="#FCA326"/>
<path d="M6.43513 15.3045C4.70076 14.0067 2.70123 13.108 0.579333 12.6724L0.534467 12.7854C-0.0923405 14.4232 -0.170036 16.2203 0.313079 17.9061C0.796194 19.5919 1.81396 21.0751 3.21311 22.1324L3.22973 22.144L3.26795 22.1739L9.90307 27.1407L16.0081 22.5378L6.43513 15.3045Z" fill="#4CB348"/>
</g>
<path d="M40.9545 10.196V7.54545H54.8807V10.196H49.4858V25H46.3494V10.196H40.9545ZM59.4148 25.2642C58.5852 25.2642 57.8381 25.1165 57.1733 24.821C56.5142 24.5199 55.9915 24.0767 55.6051 23.4915C55.2244 22.9062 55.0341 22.1847 55.0341 21.3267C55.0341 20.5881 55.1705 19.9773 55.4432 19.4943C55.7159 19.0114 56.0881 18.625 56.5597 18.3352C57.0313 18.0455 57.5625 17.8267 58.1534 17.679C58.75 17.5256 59.3665 17.4148 60.0028 17.3466C60.7699 17.267 61.392 17.196 61.8693 17.1335C62.3466 17.0653 62.6932 16.9631 62.9091 16.8267C63.1307 16.6847 63.2415 16.4659 63.2415 16.1705V16.1193C63.2415 15.4773 63.0511 14.9801 62.6705 14.6278C62.2898 14.2756 61.7415 14.0994 61.0256 14.0994C60.2699 14.0994 59.6705 14.2642 59.2273 14.5938C58.7898 14.9233 58.4943 15.3125 58.3409 15.7614L55.4602 15.3523C55.6875 14.5568 56.0625 13.892 56.5852 13.358C57.108 12.8182 57.7472 12.4148 58.5028 12.1477C59.2585 11.875 60.0938 11.7386 61.0085 11.7386C61.6392 11.7386 62.267 11.8125 62.892 11.9602C63.517 12.108 64.0881 12.3523 64.6051 12.6932C65.1222 13.0284 65.5369 13.4858 65.8494 14.0653C66.1676 14.6449 66.3267 15.3693 66.3267 16.2386V25H63.3608V23.2017H63.2585C63.071 23.5653 62.8068 23.9062 62.4659 24.2244C62.1307 24.5369 61.7074 24.7898 61.196 24.983C60.6903 25.1705 60.0966 25.2642 59.4148 25.2642ZM60.2159 22.9972C60.8352 22.9972 61.3722 22.875 61.8267 22.6307C62.2813 22.3807 62.6307 22.0511 62.875 21.642C63.125 21.233 63.25 20.7869 63.25 20.304V18.7614C63.1534 18.8409 62.9886 18.9148 62.7557 18.983C62.5284 19.0511 62.2727 19.1108 61.9886 19.1619C61.7045 19.2131 61.4233 19.2585 61.1449 19.2983C60.8665 19.3381 60.625 19.3722 60.4205 19.4006C59.9602 19.4631 59.5483 19.5653 59.1847 19.7074C58.821 19.8494 58.5341 20.0483 58.3239 20.304C58.1136 20.554 58.0085 20.8778 58.0085 21.2756C58.0085 21.8438 58.2159 22.2727 58.6307 22.5625C59.0455 22.8523 59.5739 22.9972 60.2159 22.9972ZM69.429 25V11.9091H72.5142V25H69.429ZM70.9801 10.0511C70.4915 10.0511 70.071 9.8892 69.7188 9.56534C69.3665 9.23579 69.1903 8.84091 69.1903 8.38068C69.1903 7.91477 69.3665 7.51989 69.7188 7.19602C70.071 6.86648 70.4915 6.7017 70.9801 6.7017C71.4744 6.7017 71.8949 6.86648 72.2415 7.19602C72.5938 7.51989 72.7699 7.91477 72.7699 8.38068C72.7699 8.84091 72.5938 9.23579 72.2415 9.56534C71.8949 9.8892 71.4744 10.0511 70.9801 10.0511ZM78.772 7.54545V25H75.6868V7.54545H78.772ZM87.6548 25.2557C86.3764 25.2557 85.2685 24.9744 84.331 24.4119C83.3935 23.8494 82.6662 23.0625 82.1491 22.0511C81.6378 21.0398 81.3821 19.858 81.3821 18.5057C81.3821 17.1534 81.6378 15.9687 82.1491 14.9517C82.6662 13.9347 83.3935 13.1449 84.331 12.5824C85.2685 12.0199 86.3764 11.7386 87.6548 11.7386C88.9332 11.7386 90.0412 12.0199 90.9787 12.5824C91.9162 13.1449 92.6406 13.9347 93.152 14.9517C93.669 15.9687 93.9276 17.1534 93.9276 18.5057C93.9276 19.858 93.669 21.0398 93.152 22.0511C92.6406 23.0625 91.9162 23.8494 90.9787 24.4119C90.0412 24.9744 88.9332 25.2557 87.6548 25.2557ZM87.6719 22.7841C88.3651 22.7841 88.9446 22.5937 89.4105 22.2131C89.8764 21.8267 90.223 21.3097 90.4503 20.6619C90.6832 20.0142 90.7997 19.2926 90.7997 18.4972C90.7997 17.696 90.6832 16.9716 90.4503 16.3239C90.223 15.6705 89.8764 15.1506 89.4105 14.7642C88.9446 14.3778 88.3651 14.1847 87.6719 14.1847C86.9616 14.1847 86.3707 14.3778 85.8991 14.7642C85.4332 15.1506 85.0838 15.6705 84.8509 16.3239C84.6236 16.9716 84.5099 17.696 84.5099 18.4972C84.5099 19.2926 84.6236 20.0142 84.8509 20.6619C85.0838 21.3097 85.4332 21.8267 85.8991 22.2131C86.3707 22.5937 86.9616 22.7841 87.6719 22.7841ZM96.5462 25V11.9091H99.5376V14.0909H99.674C99.9126 13.3352 100.322 12.7528 100.901 12.3438C101.487 11.929 102.154 11.7216 102.904 11.7216C103.075 11.7216 103.265 11.7301 103.475 11.7472C103.691 11.7585 103.87 11.7784 104.012 11.8068V14.6449C103.881 14.5994 103.674 14.5597 103.39 14.5256C103.112 14.4858 102.842 14.4659 102.58 14.4659C102.018 14.4659 101.512 14.5881 101.063 14.8324C100.62 15.071 100.271 15.4034 100.015 15.8295C99.7592 16.2557 99.6314 16.7472 99.6314 17.304V25H96.5462ZM116.408 15.3693L113.596 15.6761C113.516 15.392 113.377 15.125 113.178 14.875C112.985 14.625 112.724 14.4233 112.394 14.2699C112.065 14.1165 111.661 14.0398 111.184 14.0398C110.542 14.0398 110.002 14.179 109.565 14.4574C109.133 14.7358 108.92 15.0966 108.925 15.5398C108.92 15.9205 109.059 16.2301 109.343 16.4688C109.633 16.7074 110.11 16.9034 110.775 17.0568L113.008 17.5341C114.246 17.8011 115.167 18.2244 115.769 18.804C116.377 19.3835 116.684 20.142 116.69 21.0795C116.684 21.9034 116.442 22.6307 115.965 23.2614C115.494 23.8864 114.837 24.375 113.996 24.7273C113.156 25.0795 112.19 25.2557 111.099 25.2557C109.496 25.2557 108.207 24.9205 107.229 24.25C106.252 23.5739 105.67 22.6335 105.482 21.429L108.491 21.1392C108.627 21.7301 108.917 22.1761 109.36 22.4773C109.803 22.7784 110.38 22.929 111.09 22.929C111.823 22.929 112.411 22.7784 112.854 22.4773C113.303 22.1761 113.528 21.804 113.528 21.3608C113.528 20.9858 113.383 20.6761 113.093 20.4318C112.809 20.1875 112.366 20 111.763 19.8693L109.531 19.4006C108.275 19.1392 107.346 18.6989 106.744 18.0795C106.141 17.4545 105.843 16.6648 105.849 15.7102C105.843 14.9034 106.062 14.2045 106.505 13.6136C106.954 13.017 107.576 12.5568 108.371 12.233C109.173 11.9034 110.096 11.7386 111.141 11.7386C112.675 11.7386 113.883 12.0653 114.763 12.7188C115.65 13.3722 116.198 14.2557 116.408 15.3693ZM134.809 12.3438C134.729 11.5994 134.394 11.0199 133.803 10.6051C133.218 10.1903 132.457 9.98295 131.519 9.98295C130.86 9.98295 130.295 10.0824 129.823 10.2812C129.352 10.4801 128.991 10.75 128.741 11.0909C128.491 11.4318 128.363 11.821 128.357 12.2585C128.357 12.6222 128.44 12.9375 128.604 13.2045C128.775 13.4716 129.005 13.6989 129.295 13.8864C129.585 14.0682 129.906 14.2216 130.258 14.3466C130.61 14.4716 130.965 14.5767 131.323 14.6619L132.96 15.071C133.619 15.2244 134.252 15.4318 134.86 15.6932C135.474 15.9545 136.022 16.2841 136.505 16.6818C136.994 17.0795 137.38 17.5597 137.664 18.1222C137.948 18.6847 138.09 19.3437 138.09 20.0994C138.09 21.1222 137.829 22.0227 137.306 22.8011C136.783 23.5739 136.028 24.179 135.039 24.6165C134.056 25.0483 132.866 25.2642 131.468 25.2642C130.11 25.2642 128.931 25.054 127.931 24.6335C126.937 24.2131 126.158 23.5994 125.596 22.7926C125.039 21.9858 124.738 21.0028 124.692 19.8438H127.803C127.849 20.4517 128.036 20.9574 128.366 21.3608C128.695 21.7642 129.124 22.0653 129.653 22.2642C130.187 22.4631 130.783 22.5625 131.442 22.5625C132.13 22.5625 132.732 22.4602 133.249 22.2557C133.772 22.0455 134.181 21.7557 134.477 21.3864C134.772 21.0114 134.923 20.5739 134.928 20.0739C134.923 19.6193 134.789 19.2443 134.528 18.9489C134.266 18.6477 133.9 18.3977 133.428 18.1989C132.962 17.9943 132.417 17.8125 131.792 17.6534L129.806 17.142C128.369 16.7727 127.232 16.2131 126.397 15.4631C125.567 14.7074 125.153 13.7045 125.153 12.4545C125.153 11.4261 125.431 10.5256 125.988 9.75284C126.55 8.98011 127.315 8.38068 128.281 7.95454C129.246 7.52273 130.34 7.30682 131.562 7.30682C132.8 7.30682 133.886 7.52273 134.817 7.95454C135.755 8.38068 136.491 8.97443 137.025 9.73579C137.559 10.4915 137.835 11.3608 137.852 12.3438H134.809ZM149.116 19.4943V11.9091H152.202V25H149.21V22.6733H149.074C148.778 23.4062 148.293 24.0057 147.616 24.4716C146.946 24.9375 146.119 25.1705 145.136 25.1705C144.278 25.1705 143.52 24.9801 142.861 24.5994C142.207 24.2131 141.696 23.6534 141.327 22.9205C140.957 22.1818 140.773 21.2898 140.773 20.2443V11.9091H143.858V19.767C143.858 20.5966 144.085 21.2557 144.54 21.7443C144.994 22.233 145.591 22.4773 146.33 22.4773C146.784 22.4773 147.224 22.3665 147.651 22.1449C148.077 21.9233 148.426 21.5938 148.699 21.1562C148.977 20.7131 149.116 20.1591 149.116 19.4943ZM155.374 25V11.9091H158.46V25H155.374ZM156.925 10.0511C156.437 10.0511 156.016 9.8892 155.664 9.56534C155.312 9.23579 155.136 8.84091 155.136 8.38068C155.136 7.91477 155.312 7.51989 155.664 7.19602C156.016 6.86648 156.437 6.7017 156.925 6.7017C157.42 6.7017 157.84 6.86648 158.187 7.19602C158.539 7.51989 158.715 7.91477 158.715 8.38068C158.715 8.84091 158.539 9.23579 158.187 9.56534C157.84 9.8892 157.42 10.0511 156.925 10.0511ZM168.169 11.9091V14.2955H160.643V11.9091H168.169ZM162.501 8.77273H165.587V21.0625C165.587 21.4773 165.649 21.7955 165.774 22.017C165.905 22.233 166.075 22.3807 166.286 22.4602C166.496 22.5398 166.729 22.5795 166.984 22.5795C167.178 22.5795 167.354 22.5653 167.513 22.5369C167.678 22.5085 167.803 22.483 167.888 22.4602L168.408 24.8722C168.243 24.929 168.007 24.9915 167.7 25.0597C167.399 25.1278 167.03 25.1676 166.592 25.179C165.82 25.2017 165.124 25.0852 164.504 24.8295C163.885 24.5682 163.393 24.1648 163.03 23.6193C162.672 23.0739 162.496 22.392 162.501 21.5739V8.77273ZM176.404 25.2557C175.092 25.2557 173.958 24.983 173.004 24.4375C172.055 23.8864 171.325 23.108 170.813 22.1023C170.302 21.0909 170.046 19.9006 170.046 18.5312C170.046 17.1847 170.302 16.0028 170.813 14.9858C171.33 13.9631 172.052 13.1676 172.978 12.5994C173.904 12.0256 174.992 11.7386 176.242 11.7386C177.049 11.7386 177.81 11.8693 178.526 12.1307C179.248 12.3864 179.884 12.7841 180.435 13.3239C180.992 13.8636 181.43 14.5511 181.748 15.3864C182.066 16.2159 182.225 17.2045 182.225 18.3523V19.2983H171.495V17.2188H179.268C179.262 16.6278 179.134 16.1023 178.884 15.642C178.634 15.1761 178.285 14.8097 177.836 14.5426C177.393 14.2756 176.876 14.142 176.285 14.142C175.654 14.142 175.1 14.2955 174.623 14.6023C174.146 14.9034 173.773 15.3011 173.506 15.7955C173.245 16.2841 173.112 16.821 173.106 17.4062V19.2216C173.106 19.983 173.245 20.6364 173.523 21.1818C173.802 21.7216 174.191 22.1364 174.691 22.4261C175.191 22.7102 175.776 22.8523 176.447 22.8523C176.896 22.8523 177.302 22.7898 177.665 22.6648C178.029 22.5341 178.344 22.3438 178.612 22.0938C178.879 21.8438 179.08 21.5341 179.217 21.1648L182.097 21.4886C181.915 22.25 181.569 22.9148 181.058 23.483C180.552 24.0455 179.904 24.483 179.114 24.7955C178.325 25.1023 177.421 25.2557 176.404 25.2557Z" fill="black"/>
<defs>
<clipPath id="clip0_8608_408506">
<rect width="32" height="32" fill="white"/>
</clipPath>
</defs>
</svg>
