<svg width="140" height="29" viewBox="0 0 140 29" fill="none" xmlns="http://www.w3.org/2000/svg">
<g clip-path="url(#clip0_8531_404703)">
<path d="M103.396 5.4869C102.743 5.4869 102.206 5.26415 101.74 4.84092C101.273 4.39541 101.063 3.88308 101.063 3.25938C101.063 2.63567 101.296 2.10106 101.763 1.67783C102.23 1.2546 102.766 1.03185 103.419 1.03185C104.049 1.03185 104.586 1.2546 105.029 1.67783C105.496 2.12333 105.729 2.63567 105.729 3.2371C105.729 3.83853 105.496 4.37314 105.052 4.81865C104.609 5.28643 104.049 5.4869 103.396 5.4869ZM45.6557 21.1909L39.5901 1.2546H31.3548V2.54656H32.148C32.7779 2.54656 33.2678 2.59112 33.5944 2.70249C34.1543 2.8807 34.5276 3.28165 34.6909 3.92763C34.7842 4.21722 34.8076 4.84092 34.8076 5.77648V21.5028C34.8076 22.973 34.7609 24.0199 34.6676 24.6214C34.5276 25.4232 34.2243 26.0247 33.7577 26.4256C33.2678 26.8489 32.6845 27.0494 32.0314 27.0494H31.3548V28.3636H40.15V27.0494H39.5901C38.0503 27.0494 37.0705 26.3366 36.6506 24.9332C36.5106 24.4208 36.4406 23.2626 36.4406 21.5028V3.70488L43.9293 28.3636H45.2358L52.7479 3.70488V23.0621C52.7479 23.9753 52.7012 24.7327 52.6313 25.3119C52.5845 25.8019 52.3979 26.1806 52.118 26.4479C51.6748 26.8489 50.9282 27.0716 49.855 27.0716H49.5051V28.3859H60.19V27.0716H59.6067C58.1369 27.0716 57.2504 26.6484 56.9472 25.8242C56.7839 25.3787 56.7139 24.4654 56.7139 23.0844V6.57839C56.7139 5.66511 56.7605 4.90775 56.8305 4.30632C56.8772 3.83854 57.0638 3.45986 57.3438 3.19256C57.7637 2.76933 58.5336 2.56885 59.5834 2.56885H60.1666V1.2546H51.8614L45.6557 21.1909ZM69.2651 9.07322C71.9247 9.07322 74.071 10.0756 75.7274 12.0804C77.1738 13.8179 77.897 16.1345 77.897 18.9634C77.897 21.8592 77.1738 24.1758 75.7274 25.9356C74.0944 27.9403 71.9013 28.9427 69.1485 28.9427C66.5589 28.9427 64.436 27.9403 62.8028 25.9356C61.3564 24.1758 60.6332 21.8593 60.6332 19.008C60.6332 16.1345 61.3564 13.8179 62.8028 12.0804C64.436 10.0756 66.5823 9.07322 69.2651 9.07322ZM69.2651 27.6285C72.2513 27.6285 73.7444 24.7327 73.7444 18.9188C73.7444 16.2458 73.4177 14.2188 72.7646 12.8155C72.3679 11.9467 71.7614 11.3007 70.9915 10.833C70.4549 10.5211 69.895 10.3652 69.2651 10.3652C68.2853 10.3652 67.4221 10.7439 66.6755 11.5012C65.4158 12.7486 64.7859 15.1766 64.7859 18.7852C64.7859 21.7701 65.1825 24.0422 65.9524 25.5792C66.6289 26.9602 67.7254 27.6285 69.2651 27.6285ZM90.0517 9.25142C92.1046 9.25142 93.7844 9.94196 95.1142 11.3453C96.8172 13.1496 97.6804 15.5999 97.6804 18.6738C97.6804 21.6142 96.9105 24.0422 95.3941 26.0247C93.971 27.8736 92.0813 28.7868 89.7484 28.7868C88.4886 28.7868 87.3221 28.4527 86.2723 27.8067C86.0391 27.673 85.5724 27.3167 84.8492 26.7598C84.5693 26.537 84.3359 26.4479 84.126 26.4479C83.8694 26.4479 83.5894 26.6484 83.2861 27.0716C83.0062 27.4503 82.7029 27.8736 82.3996 28.3636H80.9765C81.1164 27.9849 81.1864 27.7399 81.2098 27.673C81.3264 27.1385 81.3964 26.0247 81.3964 24.3541V5.73193C81.3964 4.26177 81.2332 3.34847 80.8832 2.99207C80.6033 2.65794 80.0433 2.50202 79.2268 2.50202H78.9235V1.2546L84.9892 0.987297V12.3031C85.3392 11.5235 85.8057 10.9221 86.3889 10.4766C87.4387 9.65237 88.6519 9.25142 90.0517 9.25142ZM89.2818 27.3612C92.1046 27.3612 93.5044 24.4877 93.5044 18.763C93.5044 16.1345 93.1545 14.1075 92.4546 12.6818C91.7781 11.3676 90.7982 10.6993 89.4684 10.6993C88.5352 10.6993 87.6721 11.0334 86.8556 11.724C85.3624 13.0382 84.6159 15.3993 84.6159 18.8298C84.6159 21.4805 84.9658 23.5299 85.6657 24.9777C86.0389 25.7351 86.5756 26.3589 87.2988 26.8043C87.9054 27.1608 88.5586 27.3612 89.2818 27.3612ZM133.001 25.6905C133.537 25.0892 134.075 24.2427 134.635 23.1734L135.894 23.8195C134.097 27.2498 131.695 28.965 128.662 28.965C126.422 28.965 124.602 28.2299 123.156 26.7821C121.383 24.9777 120.497 22.3493 120.497 18.9188C120.497 15.7781 121.383 13.2387 123.156 11.3453C124.556 9.85285 126.236 9.09549 128.218 9.09549C131.135 9.09549 133.351 10.4988 134.821 13.3055C135.614 14.798 136.057 16.669 136.127 18.8967H124.486C124.51 21.5251 124.79 23.463 125.35 24.7104C126.118 26.4925 127.448 27.3835 129.338 27.3835C130.785 27.3612 131.998 26.8043 133.001 25.6905ZM124.93 13.996C124.65 14.9316 124.51 16.09 124.486 17.4264H132.161C132.161 15.7781 131.975 14.3971 131.601 13.3278C130.925 11.4344 129.852 10.4766 128.405 10.4766C126.772 10.4988 125.606 11.6794 124.93 13.996ZM116.834 26.6262C116.484 26.2474 116.321 25.3119 116.321 23.8195V0.965027L110.068 1.23233V2.47974H110.535C111.328 2.47974 111.888 2.63567 112.168 2.96981C112.518 3.34848 112.682 4.26177 112.682 5.73193V23.7972C112.682 25.2896 112.518 26.2029 112.168 26.6039C111.864 26.9379 111.328 27.0939 110.535 27.0939H109.858V28.3413H119.167V27.0939H118.491C117.697 27.1162 117.137 26.9379 116.834 26.6262ZM106.032 26.6262C105.682 26.2474 105.519 25.3119 105.519 23.8195V9.3628L99.2668 9.6301V10.8998H99.7567C100.55 10.8998 101.11 11.0557 101.413 11.3676C101.763 11.7462 101.926 12.6596 101.926 14.1297V23.7972C101.926 25.2896 101.763 26.2029 101.413 26.6039C101.11 26.9379 100.573 27.0939 99.7567 27.0939H99.0802V28.3413H108.389V27.0939H107.712C106.872 27.1162 106.336 26.9379 106.032 26.6262ZM17.5437 13.7287V19.2307H23.3061V13.7287H20.3199H17.5437ZM0.303283 1.2546L0.0233291 10.833L1.53974 11.078C1.8197 8.24903 2.58957 6.15516 3.87269 4.79636C5.20246 3.37075 7.04549 2.61339 9.40177 2.56885V22.5943C9.40177 24.3541 9.14515 25.4678 8.60857 26.0024C8.16531 26.4479 7.39544 26.7152 6.29896 26.8266C5.97234 26.8489 5.43576 26.8712 4.66589 26.8712V28.4082H18.6869V26.8712C17.917 26.8712 17.3571 26.8489 17.0538 26.8266C15.9807 26.7152 15.2108 26.4479 14.7443 26.0024C14.2076 25.4678 13.951 24.3541 13.951 22.5943V2.56885C16.3073 2.63567 18.1504 3.37075 19.5034 4.79636C20.7632 6.15516 21.5564 8.24903 21.8363 11.078L23.3528 10.833L23.0729 1.2546H0.303283ZM5.76238 13.7287H2.91618H0V19.2307H5.76238V13.7287ZM137.084 11.2562V9.3628H137.714V9.07322H136.127V9.3628H136.757V11.2562H137.084ZM138.297 11.2562V9.56328L138.834 11.2562H139.184L139.696 9.54101V11.2562H140V9.07322H139.556L138.996 10.833L138.437 9.07322H137.994V11.2562H138.297Z" fill="#171321"/>
</g>
<defs>
<clipPath id="clip0_8531_404703">
<rect width="140" height="28" fill="white" transform="translate(0 0.965027)"/>
</clipPath>
</defs>
</svg>
