<svg width="140" height="54" viewBox="0 0 140 54" fill="none" xmlns="http://www.w3.org/2000/svg">
<g clip-path="url(#clip0_8531_404709)">
<mask id="mask0_8531_404709" style="mask-type:luminance" maskUnits="userSpaceOnUse" x="0" y="0" width="140" height="54">
<path d="M139.992 0.0449829H0.0078125V53.885H139.992V0.0449829Z" fill="white"/>
</mask>
<g mask="url(#mask0_8531_404709)">
<mask id="mask1_8531_404709" style="mask-type:luminance" maskUnits="userSpaceOnUse" x="0" y="0" width="140" height="54">
<path d="M139.992 0.0449829H0.0078125V53.8548H139.992V0.0449829Z" fill="white"/>
</mask>
<g mask="url(#mask1_8531_404709)">
<path d="M127.011 43.9162C124.926 43.7619 122.676 43.2379 120.89 42.4902C120.486 42.3211 120.201 40.7836 119.998 40.7064L119.58 38.6477C119.526 36.8137 119.457 34.7872 119.428 34.145L119.372 32.977H120.868L121.059 34.4136C121.768 39.7805 124.603 42.4816 129.524 42.4816C132.793 42.4816 134.819 41.2557 135.84 38.6607C136.158 37.8513 136.207 37.4339 136.213 35.472C136.221 33.2391 136.216 33.203 135.694 32.1378C134.781 30.2683 133.858 29.6484 129.254 27.8156C127.889 27.2719 126.267 26.5729 125.65 26.2621C121.631 24.2364 119.639 21.3623 119.647 17.5987C119.657 12.7838 122.338 9.30852 127.012 8.05049C128.638 7.61283 132.603 7.66054 134.299 8.13863C135.889 8.58666 137.993 9.41943 138.216 9.69015C138.311 9.80546 138.42 11.1682 138.469 12.8563C138.517 14.4864 138.581 16.2008 138.614 16.6658L138.673 17.5116H137.158L136.825 15.8152C136.05 11.8651 134.232 9.7832 131.101 9.26132C128.566 8.83867 125.495 9.81721 124.285 11.432C123.365 12.6596 123.089 13.6212 123.089 15.5785C123.089 17.1346 123.126 17.3454 123.563 18.2139C124.131 19.3421 124.939 20.0799 126.451 20.8524C127.511 21.3934 131.087 22.828 131.377 22.828C131.658 22.828 134.872 24.4297 135.702 24.9841C138.011 26.5262 139.298 28.5958 139.758 31.5067C139.981 32.9295 139.991 33.404 139.826 34.7223C139.453 37.7094 138.581 39.5604 136.743 41.274C134.388 43.4705 131.52 44.2497 127.011 43.9162ZM70.1752 43.6984C65.0766 42.7217 62.6659 40.0382 61.9949 34.5922C61.8912 33.7511 61.8266 28.6951 61.8266 21.4225V9.61783H57.9829V8.16819H70.6354V9.60849L68.5933 9.65354L66.5514 9.69868L66.5047 20.1699C66.4435 33.7952 66.5975 35.9895 67.7845 38.4147C68.9553 40.807 71.2177 41.9986 74.5891 41.9986C78.4126 41.9986 80.5438 40.569 81.6933 37.2332C82.4289 35.0996 82.4854 33.9723 82.4865 21.4187L82.4873 9.6181H78.6436V8.16819H87.9328V9.6181H84.4222L84.3722 22.4655C84.3227 35.1777 84.3183 35.3268 83.9656 36.6018C82.9234 40.3691 80.8626 42.4799 77.2823 43.4475C75.61 43.8993 71.9058 44.0297 70.1752 43.6984ZM90.0453 42.7714L90.0947 42.079L92.0168 42.0534L93.9389 42.0279L93.9793 25.8278L94.0205 9.62788L92.0581 9.58256L90.0947 9.53743L90.0453 8.85267L89.9969 8.16819H97.8629C102.838 8.16819 106.152 8.2338 106.881 8.34709C109.662 8.77956 111.562 10.008 112.583 12.0342C113.464 13.7817 113.735 15.9702 113.324 18.0146C112.883 20.2073 111.974 21.5588 110.152 22.7313C108.919 23.5234 108.125 23.8513 106.591 24.2024C105.887 24.3634 105.251 24.5462 105.178 24.6082C105.105 24.6703 105.538 24.771 106.139 24.8318C112.326 25.4606 115.035 28.1869 115.035 33.7826C115.035 36.8632 114.308 38.8319 112.506 40.6325C111.4 41.7363 110.058 42.4694 108.167 43.0026C106.959 43.3435 106.592 43.3587 98.4534 43.4107L89.996 43.4643L90.0453 42.7714ZM104.639 41.758C107.373 41.0419 109.201 39.1468 109.808 36.4004C110.19 34.6732 110.06 31.5068 109.551 30.158C108.932 28.5175 107.89 27.2043 106.618 26.4651C105.347 25.7261 104.425 25.5665 101.437 25.5665H98.6633V41.9983H101.192C102.918 41.9983 104.013 41.9221 104.639 41.758ZM104.63 23.7347C107.278 22.8745 108.823 20.2293 108.796 16.6005C108.768 12.8157 106.855 10.0922 103.923 9.66242C103.452 9.59369 102.077 9.55941 100.865 9.58642L98.6633 9.63541V16.7682C98.6633 20.6915 98.7172 23.9579 98.7836 24.0268C98.9927 24.2447 103.8 24.0043 104.63 23.7347Z" fill="#171321"/>
<path d="M24.5494 53.4753C24.045 53.3288 24.0288 53.2971 24.0288 52.4555C24.0288 51.6039 24.0187 51.5849 23.5084 51.4853C22.5561 51.2997 20.9151 50.5461 20.1488 49.942C17.3253 47.7174 16.358 44.2385 17.6292 40.883C18.4419 38.7372 20.6847 36.8189 23.1102 36.1946C24.2821 35.893 24.2267 35.5554 22.9878 35.4517L22.0269 35.3711V33.7602L23.0277 33.7122L24.0288 33.6643V29.5639C24.0288 27.3088 23.9952 25.4635 23.9544 25.4635C23.9131 25.4635 22.7054 26.4242 21.2701 27.5981C19.8348 28.7721 18.4629 29.888 18.2216 30.078C17.9802 30.2681 17.7837 30.4856 17.785 30.5613C17.7863 30.6373 18.0316 30.9891 18.3303 31.3436C18.857 31.9692 18.8656 32.0011 18.6162 32.4265C18.4752 32.6676 18.1609 32.9347 17.9185 33.0196C17.5141 33.1613 17.4241 33.1113 16.841 32.4201C16.3825 31.8766 16.1555 31.7143 16.0282 31.8392C15.9 31.9656 15.9924 32.3153 16.3641 33.1146C16.8086 34.0695 16.8864 34.4351 16.9497 35.8655C17.0095 37.2234 16.9634 37.7096 16.6885 38.6177C15.9324 41.1145 14.1228 42.9346 11.64 43.695C10.7377 43.9714 10.2671 44.0167 8.99721 43.9504C7.23002 43.8578 6.21056 43.5143 4.77135 42.5265C4.26576 42.1794 3.79752 41.8985 3.73037 41.9022C3.66322 41.9059 3.3635 42.1194 3.06404 42.377C2.54861 42.8202 2.49494 42.8327 2.06584 42.6095C1.62456 42.38 1.12598 41.6424 1.12598 41.219C1.12598 41.1036 1.39225 40.7847 1.71764 40.5099L2.30956 40.01L1.8828 39.0201C0.00722061 34.67 1.91753 29.9196 6.18283 28.3266C6.95546 28.0381 7.44445 27.9756 8.81366 27.9906C10.7929 28.0122 11.764 28.3157 13.4163 29.4304C14.7237 30.312 15.0473 30.165 14.1697 29.0876C13.5757 28.3581 13.5664 28.327 13.8165 27.908C13.9581 27.6709 14.2682 27.4059 14.5057 27.3186C14.9009 27.1734 14.9945 27.2253 15.5996 27.9217L16.261 28.6831L19.7046 25.874C21.5984 24.329 23.1478 22.9893 23.1478 22.8967C23.1478 22.8045 21.6345 21.5006 19.7847 19.9994L16.4212 17.27L15.9807 17.6916C15.4149 18.2335 15.4249 18.5511 16.0209 18.9942C16.6074 19.4305 16.6113 19.5081 16.0785 20.1448L15.6559 20.6505L15.15 20.1573C14.5453 19.5677 14.4796 19.5597 14.0818 20.0265C13.4329 20.7888 13.428 20.8908 14.0217 21.2973C14.3274 21.5065 14.5777 21.7587 14.5783 21.8573C14.5796 22.0681 13.9657 22.8866 13.807 22.8855C13.6615 22.8845 10.6682 20.4783 10.6084 20.3136C10.5824 20.2425 11.3209 19.7658 12.2498 19.2539C13.1788 18.7425 13.9387 18.2679 13.9387 18.1996C13.9387 18.131 13.7306 17.9259 13.4759 17.7437L13.0131 17.4121L11.4522 18.3014C10.5936 18.7904 9.86476 19.164 9.83236 19.1316C9.80024 19.0992 10.0182 18.2985 10.3167 17.3522L10.8595 15.6314L10.4502 15.3076C10.2251 15.1294 9.97235 15.0069 9.88863 15.0349C9.80464 15.0628 9.48985 15.877 9.18906 16.8437C8.88833 17.8108 8.61351 18.6304 8.5785 18.6656C8.51369 18.7305 5.29015 16.1274 5.29015 16.0102C5.29015 15.8562 6.00445 14.9923 6.13175 14.9923C6.20927 14.9923 6.52584 15.1868 6.83515 15.4239L7.39778 15.8556L7.8655 15.3521C8.1227 15.0753 8.33322 14.7981 8.33322 14.7361C8.33322 14.6742 8.06618 14.3916 7.74001 14.1079L7.1468 13.592L7.53986 13.0928C8.02158 12.481 8.08692 12.4745 8.68273 12.9788C8.94459 13.2002 9.2132 13.3814 9.28005 13.3814C9.43466 13.3814 10.2575 12.4582 10.2479 12.2953C10.2438 12.2279 9.6345 11.7019 8.89378 11.1261C7.39467 9.96061 7.27669 9.6845 7.93965 8.8916C8.77191 7.89678 7.98165 7.38004 17.4622 15.1154C22.5875 19.297 23.848 20.3087 23.9344 20.3087C23.9863 20.3087 24.0288 18.46 24.0288 16.2005V12.0926H22.4273V13.7035H20.9857V12.0926H19.3841V13.7035H17.9426V9.35859L18.7036 9.66063C19.1221 9.82655 19.9274 10.1517 20.4929 10.3832C21.0584 10.6148 21.5812 10.8037 21.6542 10.8037C21.727 10.8037 21.7864 10.532 21.7856 10.1997L21.7846 9.59549L20.0015 8.88745L18.2182 8.17913L20.0026 7.46094L21.7866 6.74275V6.11531C21.7866 5.76996 21.7522 5.48761 21.7098 5.48761C21.6677 5.48761 20.8926 5.78552 19.9884 6.14954L18.143 6.89183C17.9889 6.95355 17.9428 6.46896 17.9428 4.7798V2.58791H19.3845V4.19877H20.9857V2.58791H22.4273V4.19877H24.0288V0.505956L24.6458 0.338983C25.0814 0.221015 25.4118 0.223866 25.7672 0.348317L26.2712 0.525141V10.434C26.2712 18.8137 26.3055 20.3297 26.4932 20.2573C26.6899 20.1814 31.0641 16.6527 38.6069 10.4846C39.9743 9.36658 41.1822 8.39639 41.2911 8.32847C41.5961 8.1392 42.0868 8.36087 42.4221 8.84001C43.0879 9.79101 43.0545 9.87868 41.5727 11.0638C40.8205 11.6653 40.205 12.2183 40.205 12.2928C40.205 12.4992 40.887 13.3814 41.0466 13.3814C41.1242 13.3814 41.4428 13.1854 41.755 12.9459L42.3226 12.5106L42.7763 13.0666L43.2306 13.623L42.5994 14.1867L41.9683 14.7507L42.469 15.3004C42.8118 15.6768 43.0316 15.8038 43.1665 15.7032C44.2499 14.8943 44.1982 14.9075 44.6106 15.3291C44.8194 15.5427 45.0124 15.801 45.04 15.9028C45.0947 16.1066 41.978 18.7237 41.8073 18.6175C41.749 18.5811 41.4615 17.7507 41.1682 16.7719C40.8751 15.7932 40.5564 14.9947 40.4601 14.9978C40.364 15.0006 40.1179 15.1429 39.9139 15.3144L39.5424 15.6257L40.0951 17.4033C40.3992 18.3807 40.6131 19.1808 40.5706 19.1808C40.5281 19.1808 39.7736 18.7746 38.8939 18.278L37.2947 17.375L36.8291 17.8235L36.3635 18.2723L37.3634 18.8282C37.9131 19.1342 38.7119 19.5817 39.1384 19.823L39.9133 20.262L38.2418 21.6348L36.5701 23.0077L36.1221 22.443L35.6739 21.8781L36.2859 21.3613L36.8977 20.8445L36.4506 20.2545C36.2042 19.9298 35.9677 19.6641 35.9248 19.6641C35.8819 19.6641 35.5742 19.8812 35.2413 20.1464L34.6358 20.6286L34.2019 20.0561L33.7677 19.4837L34.3726 18.9574L34.9778 18.4313L34.5119 17.8443C34.1137 17.3421 34.0063 17.2855 33.7704 17.4539C33.0914 17.9379 27.089 22.8143 27.0813 22.8881C27.0761 22.9338 27.4864 23.2962 27.9929 23.6937C28.4994 24.0913 30.0874 25.377 31.5217 26.5509C32.956 27.7249 34.1591 28.6855 34.1946 28.6855C34.2301 28.6855 34.4922 28.3594 34.7769 27.9606C35.389 27.1029 35.7243 27.0536 36.3904 27.7236L36.8755 28.2115L36.4544 28.7307C35.9076 29.4037 35.6395 29.9466 35.7824 30.0902C35.8449 30.1529 35.988 30.1345 36.1005 30.0493C37.1653 29.2395 38.4558 28.4981 39.1371 28.3043C43.0915 27.1807 46.6867 28.6881 48.4138 32.1937L49.0939 33.5748V35.6005C49.0939 37.6934 49.0817 37.7465 48.1199 39.8881C48.0784 39.9802 48.3353 40.27 48.6908 40.5325C49.2272 40.9287 49.3208 41.078 49.2435 41.4121C49.1429 41.8464 48.6278 42.4749 48.1681 42.724C47.9454 42.8449 47.7403 42.7562 47.2326 42.3189L46.5824 41.7589L45.852 42.3196C44.3555 43.4687 42.809 43.9924 40.932 43.986C38.7116 43.9782 37.1026 43.3204 35.6403 41.8233C34.5047 40.66 33.8967 39.5921 33.565 38.1765C33.141 36.3668 33.2999 34.7654 34.0797 32.9879C34.3837 32.2954 34.4428 32.0079 34.3087 31.873C34.1747 31.7382 34.0494 31.7918 33.8223 32.0812C32.8422 33.3304 32.9504 33.2632 32.3924 32.9731C32.114 32.8282 31.807 32.5606 31.71 32.3783C31.5265 32.0335 31.5661 31.9428 32.3509 30.9204L32.6755 30.4973L29.6363 28.0218C27.9649 26.6601 26.5225 25.5211 26.4315 25.4906C26.3192 25.4529 26.2796 26.7553 26.3083 29.517L26.351 33.599L27.3083 33.6482C28.3449 33.7019 28.5086 33.8272 28.5086 34.5656C28.5086 35.3042 28.3449 35.4292 27.3083 35.4828C25.9433 35.5534 26.042 35.8813 27.5612 36.3218C29.5801 36.9079 31.018 37.9677 32.1619 39.7139C33.5439 41.8231 33.6942 44.8527 32.5361 47.2509C31.7473 48.8843 29.6421 50.6656 27.9013 51.1724C26.2292 51.6592 26.2712 51.6249 26.2712 52.5087C26.2712 53.2537 26.2404 53.3125 25.7667 53.4788C25.1969 53.6783 25.2494 53.6786 24.5494 53.4753ZM24.0589 48.8278C24.1045 48.1703 24.1537 48.0951 24.6292 47.9587C24.9489 47.8673 25.3508 47.8673 25.6705 47.9587C26.1512 48.0966 26.197 48.1695 26.2712 48.9085C26.3451 49.6479 26.3817 49.7055 26.7516 49.6666C27.5314 49.5847 29.1056 48.6666 29.8629 47.8525C31.0382 46.5883 31.4611 45.5051 31.4647 43.7483C31.4665 42.9506 31.3735 42.0246 31.258 41.6901C30.473 39.4137 27.6819 38.7722 26.4746 40.5903C25.755 41.6735 26.1527 43.3479 27.2668 43.9274C27.7573 44.1825 28.9417 44.1788 29.5145 43.9206C29.7626 43.8087 29.7944 43.8958 29.7944 44.6818C29.7944 45.5323 29.7738 45.5767 29.2901 45.7461C28.1395 46.1496 26.4066 45.7592 25.7231 44.9418C25.5073 44.6842 25.3003 44.4731 25.2629 44.4731C25.2254 44.4731 24.9427 44.7122 24.6344 45.0046C23.7417 45.8514 22.4203 46.1267 21.1245 45.7363L20.5053 45.5496V44.672C20.5053 43.8916 20.5365 43.8094 20.7855 43.931C20.9398 44.0062 21.5115 44.0683 22.0566 44.0689C22.9369 44.0702 23.1025 44.0171 23.5416 43.5937C24.5253 42.6454 24.5242 41.0406 23.54 40.1158C22.057 38.7221 19.6224 39.875 19.0593 42.2373C18.4793 44.6684 19.4493 47.3209 21.4151 48.6816C22.2113 49.2326 23.7278 49.8287 23.8986 49.6575C23.9591 49.5971 24.031 49.2238 24.0589 48.8278ZM11.3078 41.905C13.0191 41.3002 14.5415 39.8509 14.9092 38.477C15.2083 37.3597 14.975 36.4515 14.1847 35.6568C13.5742 35.0423 13.4199 34.9684 12.7508 34.9684C11.4632 34.9684 10.502 35.7554 10.3061 36.9701C10.1717 37.8033 10.7486 38.8887 11.5334 39.2794L12.1547 39.5887L11.496 40.0976C11.1339 40.3776 10.7408 40.6069 10.6228 40.6069C10.5046 40.6069 10.0893 40.3113 9.69929 39.9496C8.8217 39.1358 8.41231 38.1442 8.54661 37.1574L8.64358 36.4471L7.85176 36.3377C6.63759 36.1697 5.44053 35.1663 4.97021 33.9223C4.8175 33.5183 4.85665 33.4302 5.40656 32.9412C5.73894 32.6459 6.05345 32.4011 6.10557 32.3974C6.15768 32.3939 6.28394 32.6708 6.38558 33.0133C6.63551 33.8512 7.64124 34.5656 8.57124 34.5656C9.83335 34.5656 10.8959 33.4912 10.8959 32.2147C10.8959 30.816 9.71409 29.812 8.0711 29.8148C5.10478 29.8199 2.53486 33.2969 3.06222 36.5915C3.24242 37.7167 3.59451 38.6735 3.82837 38.6735C3.91393 38.6735 4.20276 38.4888 4.46955 38.2628C4.9365 37.8676 4.97358 37.8617 5.44883 38.1091C5.72055 38.2503 6.06486 38.6232 6.21394 38.9376L6.48514 39.5096L5.88751 40.0603C5.55901 40.3631 5.29015 40.6387 5.29015 40.6727C5.29015 40.8535 7.03712 41.8231 7.67339 41.9955C8.79629 42.3 10.2967 42.2629 11.3078 41.905ZM43.5199 41.6649C44.0659 41.4174 44.6425 41.0703 44.8012 40.8933C45.082 40.5809 45.0758 40.5601 44.5694 40.1347C43.9663 39.6279 43.9147 39.2107 44.3817 38.6138C44.9974 37.8264 45.2863 37.7787 45.9907 38.3481L46.6196 38.8565L46.976 38.0805C47.2689 37.4422 47.3322 37.0183 47.3322 35.6934C47.3322 34.2518 47.2845 33.9847 46.88 33.1561C46.2007 31.7644 45.014 30.5427 43.9544 30.144C42.0653 29.433 40.4504 29.8784 39.7469 31.3048C39.2487 32.3159 39.3692 33 40.1921 33.8273C41.2421 34.8839 42.595 34.8508 43.5603 33.7446C43.8291 33.4369 44.049 33.0063 44.049 32.7881C44.049 32.2731 44.1712 32.2871 44.8932 32.8857C45.5756 33.4515 45.6078 33.6234 45.1857 34.4513C44.6485 35.5049 43.5265 36.2565 42.4252 36.3008L41.7807 36.3268L41.8825 37.0092C42.0366 38.0431 41.6927 38.9577 40.8177 39.8415C40.401 40.2625 39.9444 40.6069 39.8028 40.6069C39.6613 40.6069 39.2602 40.3761 38.9113 40.094L38.2771 39.5814L38.7205 39.3896C39.4993 39.0531 39.9235 38.4407 40.0106 37.5256C40.1117 36.4655 39.7369 35.7079 38.8978 35.2773C37.6589 34.6415 36.4874 34.9833 35.7876 36.1845C34.8249 37.8368 35.7461 40.0805 37.911 41.357C39.0461 42.0259 39.8452 42.2195 41.246 42.1651C42.2313 42.1267 42.7569 42.011 43.5199 41.6649Z" fill="#171321"/>
</g>
</g>
</g>
<defs>
<clipPath id="clip0_8531_404709">
<rect width="139.984" height="53.84" fill="white" transform="translate(0.0078125 0.0449829)"/>
</clipPath>
</defs>
</svg>
